<svg  xmlns="http://www.w3.org/2000/svg"

     height="60" width="300"
     style="width: 300px; height: 60px; position: absolute; top: 50%; left: 50%; transform: translate(-50%, -50%) scale(1); z-index: 0; cursor: pointer;">
  <defs id="SvgjsDefs1001"></defs><g id="SvgjsG1007" transform="matrix(0.9,0,0,0.9,0,0)" fill="#5569ff">
  <rect xmlns="http://www.w3.org/2000/svg" width="75" height="65" rx="10" ry="10"></rect></g><g id="SvgjsG1008" transform="matrix(0.7375616695332972,0,0,0.7375616695332972,12.30624973472012,-1.9888141925057319)"
                                                                                                fill="#ffffff">

  <path d="M47.992 52.671 l3.4859 -0.052265 l0.10436 6.9726 l-3.4862 0.052207 c-0.54264 0.008262 -1.1563 0.017695 -1.8261 0.017695 c-4.8419 0 -12.608 -0.48023 -17.513 -5.3135 c-2.1839 -2.1518 -3.5596 -4.887 -4.1093 -8.16 l-12.616 0 l-0.049805 13.469 l-6.9738 -0.025898 l0.11221 -30.382 l0 -3.4905 l0.012949 0 l0 -0.012949 l3.4835 0.012949 l32.854 0 c4.4185 0 10.991 2.7203 10.991 10.214 c0 7.4946 -6.1086 10.215 -10.214 10.215 l-10.448 0 c0.37629 1.2756 0.98526 2.3377 1.852 3.1919 c3.5054 3.4529 10.824 3.3438 14.341 3.2908 z M12.094 39.214 l30.122 -0.000058594 c0.30445 -0.010606 1.2128 -0.12515 1.9614 -0.53912 c0.64824 -0.35865 1.3106 -0.96018 1.3106 -2.7023 c0 -1.4008 -0.47396 -2.1592 -1.6915 -2.705 c-1.1065 -0.49594 -2.3146 -0.53596 -2.326 -0.53596 l-29.376 0 l0 6.4824 z"></path>
</g><g id="SvgjsG1009"  transform="matrix(0.9123088118554485,0,0,0.9123088118554485,85.91993528253683,10.15903317761839375)" fill="#18216d">
  <path d="M8.28 21.16 l0 5.84 l5.6 0 c1.84 0 2.92 -1.08 2.92 -2.92 s-1.08 -2.92 -2.92 -2.92 l-5.6 0 z M17.36 30.96 c1.12 1.52 2.24 3.04 3.4 4.52 c1.12 1.48 2.24 3 3.36 4.52 l-7.32 0 c-1.44 -1.92 -2.84 -3.84 -4.24 -5.76 c-1.4 -1.88 -2.84 -3.8 -4.28 -5.72 l0 11.48 l-6 0 l0 -24.48 l11.6 0 c4.56 0 8.44 3.48 8.44 8.08 c0 3.24 -2 6.08 -4.96 7.36 z M29.736000000000004 27.6 c0.6 0.2 1.28 0.36 2 0.44 c0.72 0.12 1.4 0.16 2.04 0.16 c0.8 0 2.84 -0.16 2.84 -1.32 c0 -1.24 -1.76 -1.28 -2.64 -1.28 c-1.76 0 -3.28 0.4 -4.24 2 z M41.056 33.76 l0 5.6 c-2.24 0.52 -4.48 0.88 -6.8 0.88 c-6.36 0 -11.08 -3.72 -11.08 -10.16 c0 -6.36 4.56 -10.28 10.6 -10.28 c4.12 0 8.88 1.96 8.88 6.64 c0 4.64 -5.04 6.36 -8.92 6.36 c-1.48 0 -2.96 -0.4 -4.32 -0.96 c0.8 2.24 3.2 2.6 5.28 2.6 c1.08 0 2.16 -0.04 3.24 -0.2 c1 -0.08 2.16 -0.2 3.12 -0.48 z M42.912000000000006 39.36 l0 -5.6 c2.64 0.8 5.96 0.96 8.68 0.96 c1.08 0 1.92 -0.04 2.52 -0.16 c0.56 -0.08 0.84 -0.28 0.84 -0.56 c0 -0.12 -0.04 -0.2 -0.12 -0.32 c-0.4 -0.4 -1.28 -0.6 -1.8 -0.72 s-1.2 -0.28 -2.04 -0.44 c-0.68 -0.12 -1.48 -0.28 -2.4 -0.48 c-3.12 -0.68 -5.52 -2.44 -5.52 -5.8 c0 -4.96 4.84 -6.44 8.92 -6.44 c2.56 0 5.12 0.36 7.64 0.88 l0 5.64 c-2.52 -0.76 -5.36 -0.96 -8 -0.96 c-1.04 0 -1.76 0.04 -2.2 0.16 s-0.68 0.32 -0.68 0.56 c0 0.36 0.36 0.6 1.04 0.72 c0.68 0.16 1.64 0.36 2.8 0.56 c1.04 0.2 2.04 0.4 3 0.64 c2.96 0.76 5.08 2.36 5.08 5.56 c0 5.36 -5.4 6.68 -9.72 6.68 c-2.72 0 -5.4 -0.36 -8.04 -0.88 z M75.808 20 l6 0 l0 10 c0 6.12 -4.24 10.2 -10.2 10.2 c-6.12 0 -10.2 -4.28 -10.2 -10.2 l0 -10 l6 0 l0 10 c0 2.68 1.36 4.64 4.2 4.64 c2.92 0 4.2 -1.92 4.2 -4.64 l0 -10 z M116.02400000000002 29.2 l0 10.8 l-6 0 l0 -10.8 c0 -2.28 -1.08 -3.84 -3.48 -3.84 c-2.36 0 -3.52 1.6 -3.52 3.84 l0 10.8 l-6 0 l0 -10.8 c0 -2.28 -1.16 -3.84 -3.56 -3.84 c-2.36 0 -3.44 1.6 -3.44 3.84 l0 10.8 l-6 0 l0 -10.8 c0 -5.8 3.96 -9.4 9.52 -9.4 c2.84 0 5.04 1.32 6.48 3.76 c1.44 -2.44 3.64 -3.76 6.48 -3.76 c5.76 0 9.52 3.8 9.52 9.4 z M123.32000000000002 27.6 c0.6 0.2 1.28 0.36 2 0.44 c0.72 0.12 1.4 0.16 2.04 0.16 c0.8 0 2.84 -0.16 2.84 -1.32 c0 -1.24 -1.76 -1.28 -2.64 -1.28 c-1.76 0 -3.28 0.4 -4.24 2 z M134.64000000000001 33.76 l0 5.6 c-2.24 0.52 -4.48 0.88 -6.8 0.88 c-6.36 0 -11.08 -3.72 -11.08 -10.16 c0 -6.36 4.56 -10.28 10.6 -10.28 c4.12 0 8.88 1.96 8.88 6.64 c0 4.64 -5.04 6.36 -8.92 6.36 c-1.48 0 -2.96 -0.4 -4.32 -0.96 c0.8 2.24 3.2 2.6 5.28 2.6 c1.08 0 2.16 -0.04 3.24 -0.2 c1 -0.08 2.16 -0.2 3.12 -0.48 z M143.69600000000003 21.16 l0 5.84 l5.6 0 c1.84 0 2.92 -1.08 2.92 -2.92 s-1.08 -2.92 -2.92 -2.92 l-5.6 0 z M152.776 30.96 c1.12 1.52 2.24 3.04 3.4 4.52 c1.12 1.48 2.24 3 3.36 4.52 l-7.32 0 c-1.44 -1.92 -2.84 -3.84 -4.24 -5.76 c-1.4 -1.88 -2.84 -3.8 -4.28 -5.72 l0 11.48 l-6 0 l0 -24.48 l11.6 0 c4.56 0 8.44 3.48 8.44 8.08 c0 3.24 -2 6.08 -4.96 7.36 z M165.15200000000002 27.6 c0.6 0.2 1.28 0.36 2 0.44 c0.72 0.12 1.4 0.16 2.04 0.16 c0.8 0 2.84 -0.16 2.84 -1.32 c0 -1.24 -1.76 -1.28 -2.64 -1.28 c-1.76 0 -3.28 0.4 -4.24 2 z M176.472 33.76 l0 5.6 c-2.24 0.52 -4.48 0.88 -6.8 0.88 c-6.36 0 -11.08 -3.72 -11.08 -10.16 c0 -6.36 4.56 -10.28 10.6 -10.28 c4.12 0 8.88 1.96 8.88 6.64 c0 4.64 -5.04 6.36 -8.92 6.36 c-1.48 0 -2.96 -0.4 -4.32 -0.96 c0.8 2.24 3.2 2.6 5.28 2.6 c1.08 0 2.16 -0.04 3.24 -0.2 c1 -0.08 2.16 -0.2 3.12 -0.48 z M185.24800000000002 30 c0 2.96 1.48 4.64 4.48 4.64 c0.84 0 1.6 -0.12 2.2 -0.4 c1.12 -0.44 1.88 -1.28 2.28 -2.44 c0.16 -0.56 0.24 -1.16 0.24 -1.8 s-0.08 -1.24 -0.24 -1.8 c-0.44 -1.24 -1.12 -1.92 -2.28 -2.48 c-0.6 -0.24 -1.36 -0.36 -2.2 -0.36 c-3 0 -4.48 1.68 -4.48 4.64 z M185.24800000000002 38 l0 10 l-6 0 l0 -18 c0 -6.4 4.52 -10.2 10.56 -10.2 c6.16 0 10.64 4.04 10.64 10.16 c0 5.68 -4.28 10.24 -9.96 10.24 c-1.16 0 -2.16 -0.2 -3 -0.6 c-0.88 -0.36 -1.64 -0.92 -2.24 -1.6 z M210.90400000000002 34.64 c2.92 0 4.6 -1.72 4.6 -4.64 s-1.68 -4.64 -4.6 -4.64 s-4.6 1.72 -4.6 4.64 s1.68 4.64 4.6 4.64 z M210.90400000000002 40.2 c-6.16 0 -10.6 -4.08 -10.6 -10.2 c0 -6.32 4.6 -10.2 10.6 -10.2 c6.2 0 10.6 4.08 10.6 10.2 c0 6.28 -4.64 10.2 -10.6 10.2 z"></path>
</g>
</svg>


